<svg width="1600" height="1000" viewBox="0 0 1600 1000" fill="none" xmlns="http://www.w3.org/2000/svg">
  <defs>
    <linearGradient id="bg" x1="0" y1="0" x2="1" y2="1">
      <stop offset="0%" stop-color="#FF6B6B"/>
      <stop offset="50%" stop-color="#F9A8D4"/>
      <stop offset="100%" stop-color="#6366F1"/>
    </linearGradient>
    <radialGradient id="glow" cx="0.3" cy="0.3" r="0.9">
      <stop offset="0%" stop-color="#FFFFFF" stop-opacity="0.55"/>
      <stop offset="80%" stop-color="#FFFFFF" stop-opacity="0"/>
    </radialGradient>
    <linearGradient id="ribbon" x1="0" y1="0" x2="1" y2="0">
      <stop offset="0%" stop-color="#F472B6" stop-opacity="0.8"/>
      <stop offset="100%" stop-color="#7C3AED" stop-opacity="0.8"/>
    </linearGradient>
    <filter id="blur">
      <feGaussianBlur stdDeviation="80" result="blur"/>
    </filter>
  </defs>
  <rect width="1600" height="1000" rx="56" fill="url(#bg)"/>
  <circle cx="380" cy="180" r="260" fill="url(#glow)" filter="url(#blur)"/>
  <circle cx="1280" cy="140" r="240" fill="url(#glow)" filter="url(#blur)" />
  <circle cx="1260" cy="760" r="320" fill="url(#glow)" filter="url(#blur)" />
  <path d="M0 720C220 660 400 700 650 780C900 860 1220 900 1600 820V1040H0V720Z" fill="url(#ribbon)" />
  <path d="M0 580C240 600 520 540 760 620C1000 700 1260 700 1600 620V1040H0V580Z" fill="#0F172A" fill-opacity="0.08"/>
  <rect x="200" y="220" width="520" height="280" rx="32" fill="white" fill-opacity="0.08" stroke="white" stroke-opacity="0.16" stroke-width="2"/>
  <rect x="900" y="260" width="380" height="220" rx="28" fill="white" fill-opacity="0.08" stroke="white" stroke-opacity="0.14" stroke-width="2"/>
  <rect x="760" y="540" width="520" height="280" rx="38" fill="white" fill-opacity="0.06" stroke="white" stroke-opacity="0.12" stroke-width="2"/>
  <circle cx="280" cy="680" r="120" fill="white" fill-opacity="0.04" stroke="white" stroke-opacity="0.1" stroke-width="2"/>
</svg>
