<svg width="1600" height="900" viewBox="0 0 1600 900" fill="none" xmlns="http://www.w3.org/2000/svg">
  <defs>
    <linearGradient id="coverGradient" x1="0" y1="0" x2="1" y2="1">
      <stop offset="0%" stop-color="#0f172a"/>
      <stop offset="50%" stop-color="#111827"/>
      <stop offset="100%" stop-color="#0b1020"/>
    </linearGradient>
    <linearGradient id="coverAccent" x1="0" y1="0" x2="1" y2="0">
      <stop offset="0%" stop-color="#f472b6" stop-opacity="0.8"/>
      <stop offset="60%" stop-color="#8b5cf6" stop-opacity="0.8"/>
      <stop offset="100%" stop-color="#38bdf8" stop-opacity="0.8"/>
    </linearGradient>
    <radialGradient id="coverGlow" cx="0.35" cy="0.3" r="0.65">
      <stop offset="0%" stop-color="#ffffff" stop-opacity="0.4"/>
      <stop offset="100%" stop-color="#ffffff" stop-opacity="0"/>
    </radialGradient>
    <filter id="coverBlur">
      <feGaussianBlur stdDeviation="80" result="blur"/>
    </filter>
  </defs>
  <rect width="1600" height="900" fill="url(#coverGradient)"/>
  <circle cx="320" cy="200" r="260" fill="url(#coverGlow)" filter="url(#coverBlur)"/>
  <circle cx="1280" cy="220" r="240" fill="url(#coverGlow)" filter="url(#coverBlur)"/>
  <circle cx="1200" cy="720" r="320" fill="url(#coverGlow)" filter="url(#coverBlur)"/>
  <path d="M0 640C240 600 520 660 780 740C1040 820 1340 840 1600 780V980H0V640Z" fill="url(#coverAccent)" opacity="0.9"/>
  <path d="M0 560C260 600 520 560 760 640C1000 720 1260 740 1600 680V980H0V560Z" fill="white" fill-opacity="0.04"/>
  <rect x="200" y="260" width="480" height="240" rx="28" fill="white" fill-opacity="0.06" stroke="white" stroke-opacity="0.12" stroke-width="2"/>
  <rect x="900" y="300" width="420" height="220" rx="26" fill="white" fill-opacity="0.06" stroke="white" stroke-opacity="0.12" stroke-width="2"/>
  <rect x="760" y="560" width="540" height="240" rx="34" fill="white" fill-opacity="0.05" stroke="white" stroke-opacity="0.1" stroke-width="2"/>
  <rect x="1200" y="480" width="240" height="130" rx="18" fill="white" fill-opacity="0.05" stroke="white" stroke-opacity="0.08" stroke-width="1.5"/>
  <rect x="1160" y="690" width="220" height="120" rx="18" fill="white" fill-opacity="0.05" stroke="white" stroke-opacity="0.08" stroke-width="1.5"/>
</svg>
