<svg width="1600" height="900" viewBox="0 0 1600 900" fill="none" xmlns="http://www.w3.org/2000/svg">
  <defs>
    <linearGradient id="cityGradient" x1="0" y1="0" x2="1" y2="1">
      <stop offset="0%" stop-color="#0f172a"/>
      <stop offset="40%" stop-color="#1e293b"/>
      <stop offset="100%" stop-color="#0b1020"/>
    </linearGradient>
    <linearGradient id="accentGradient" x1="0" y1="0" x2="1" y2="0">
      <stop offset="0%" stop-color="#f472b6" stop-opacity="0.8"/>
      <stop offset="50%" stop-color="#8b5cf6" stop-opacity="0.8"/>
      <stop offset="100%" stop-color="#38bdf8" stop-opacity="0.8"/>
    </linearGradient>
    <radialGradient id="glow" cx="0.35" cy="0.3" r="0.6">
      <stop offset="0%" stop-color="#ffffff" stop-opacity="0.35"/>
      <stop offset="100%" stop-color="#ffffff" stop-opacity="0"/>
    </radialGradient>
    <filter id="softBlur">
      <feGaussianBlur stdDeviation="72" result="blur"/>
    </filter>
  </defs>
  <rect width="1600" height="900" fill="url(#cityGradient)"/>
  <circle cx="260" cy="200" r="260" fill="url(#glow)" filter="url(#softBlur)"/>
  <circle cx="1320" cy="220" r="240" fill="url(#glow)" filter="url(#softBlur)"/>
  <circle cx="1180" cy="720" r="300" fill="url(#glow)" filter="url(#softBlur)"/>
  <path d="M0 620C220 590 440 630 720 720C1000 810 1320 840 1600 780V980H0V620Z" fill="url(#accentGradient)" opacity="0.8"/>
  <path d="M0 520C260 560 520 520 760 600C1000 680 1260 700 1600 640V980H0V520Z" fill="white" fill-opacity="0.05"/>
  <rect x="180" y="260" width="480" height="220" rx="26" fill="white" fill-opacity="0.06" stroke="white" stroke-opacity="0.12" stroke-width="2"/>
  <rect x="880" y="300" width="380" height="200" rx="24" fill="white" fill-opacity="0.06" stroke="white" stroke-opacity="0.12" stroke-width="2"/>
  <rect x="720" y="540" width="520" height="230" rx="32" fill="white" fill-opacity="0.04" stroke="white" stroke-opacity="0.1" stroke-width="2"/>
  <rect x="1160" y="460" width="220" height="120" rx="18" fill="white" fill-opacity="0.05" stroke="white" stroke-opacity="0.08" stroke-width="1.5"/>
  <rect x="1140" y="660" width="200" height="110" rx="18" fill="white" fill-opacity="0.05" stroke="white" stroke-opacity="0.08" stroke-width="1.5"/>
</svg>
