<svg width="1600" height="1000" viewBox="0 0 1600 1000" fill="none" xmlns="http://www.w3.org/2000/svg">
  <defs>
    <linearGradient id="bg" x1="0" y1="0" x2="1" y2="1">
      <stop offset="0%" stop-color="#f87171"/>
      <stop offset="40%" stop-color="#fb7185"/>
      <stop offset="100%" stop-color="#6366f1"/>
    </linearGradient>
    <radialGradient id="glow" cx="0.3" cy="0.25" r="0.8">
      <stop offset="0%" stop-color="#ffffff" stop-opacity="0.55"/>
      <stop offset="90%" stop-color="#ffffff" stop-opacity="0"/>
    </radialGradient>
    <linearGradient id="card" x1="0" y1="0" x2="1" y2="0">
      <stop offset="0%" stop-color="#ffffff" stop-opacity="0.08"/>
      <stop offset="100%" stop-color="#ffffff" stop-opacity="0.18"/>
    </linearGradient>
    <filter id="blur">
      <feGaussianBlur stdDeviation="90" result="blur"/>
    </filter>
  </defs>
  <rect width="1600" height="1000" rx="60" fill="url(#bg)"/>
  <circle cx="340" cy="200" r="260" fill="url(#glow)" filter="url(#blur)"/>
  <circle cx="1320" cy="180" r="240" fill="url(#glow)" filter="url(#blur)"/>
  <circle cx="1220" cy="780" r="320" fill="url(#glow)" filter="url(#blur)"/>
  <path d="M0 700C240 640 520 700 780 780C1040 860 1320 900 1600 840V1100H0V700Z" fill="#0f172a" fill-opacity="0.12"/>
  <path d="M0 580C260 600 520 560 760 640C1000 720 1260 740 1600 680V1100H0V580Z" fill="white" fill-opacity="0.08"/>
  <rect x="220" y="240" width="480" height="260" rx="32" fill="url(#card)" stroke="white" stroke-opacity="0.15" stroke-width="2"/>
  <rect x="940" y="280" width="380" height="240" rx="28" fill="url(#card)" stroke="white" stroke-opacity="0.12" stroke-width="2"/>
  <rect x="760" y="560" width="520" height="260" rx="38" fill="url(#card)" stroke="white" stroke-opacity="0.1" stroke-width="2"/>
  <rect x="1180" y="480" width="220" height="130" rx="18" fill="url(#card)" stroke="white" stroke-opacity="0.08" stroke-width="1.5"/>
  <rect x="1160" y="700" width="200" height="120" rx="18" fill="url(#card)" stroke="white" stroke-opacity="0.08" stroke-width="1.5"/>
  <rect x="320" y="640" width="260" height="120" rx="26" fill="url(#card)" stroke="white" stroke-opacity="0.12" stroke-width="2"/>
</svg>
